<?xml version="1.0" encoding="utf-8"?>
<!-- Generator: Adobe Illustrator 18.0.0, SVG Export Plug-In . SVG Version: 6.00 Build 0)  -->
<!DOCTYPE svg PUBLIC "-//W3C//DTD SVG 1.1//EN" "http://www.w3.org/Graphics/SVG/1.1/DTD/svg11.dtd">
<svg version="1.1" id="Layer_1" xmlns="http://www.w3.org/2000/svg" xmlns:xlink="http://www.w3.org/1999/xlink" x="0px" y="0px"
	 viewBox="0 0 529.8 792" enable-background="new 0 0 529.8 792" xml:space="preserve">
<path fill="#E3CD67" d="M480.3,1.2C444.4,8,372.1,18.5,346.1,30.9c-6.8,3.7-14.2,8-21.6,13c-4.3,4.3-9.3,9.3-13,14.2
	c-6.8,8-15.5,29.7-22.9,49.5l-37.7-12.4l7.4-22.9l-34-11.1l0,0c-11.1-2.5-25.3,11.1-32.1,31.5c-6.8,20.4-3.7,40.2,7.4,44.5l0,0
	l34,11.1l7.4-22.9l37.1,12.4c-0.6,1.9-0.6,2.5-0.6,2.5l-27.2,82.2l-37.1-12.4l7.4-22.9l-34-11.1l0,0c-11.1-2.5-25.3,11.1-32.1,31.5
	c-6.8,20.4-3.7,40.2,7.4,44.5l0,0l34,11.1l7.4-22.9l37.1,12.4l-27.8,84.7l-37.1-12.4l7.4-22.9l-34-11.1l0,0
	c-11.1-2.5-25.3,11.1-32.1,31.5c-6.8,20.4-3.7,40.2,7.4,44.5l0,0l34,11.1l7.4-22.9l37.1,12.4l-27.8,84.7l-37.1-12.4l7.4-22.9
	l-34-11.1l0,0c-11.1-2.5-25.3,11.1-32.1,31.5c-6.8,20.4-3.7,40.2,7.4,44.5l0,0l34,11.1l7.4-22.9l37.1,12.4l-27.8,84.7L100,555.2
	l7.4-22.9l-34-11.1l0,0c-11.1-2.5-25.3,11.1-32.1,31.5c-6.8,20.4-3.7,40.2,7.4,44.5l0,0l34,11.1l7.4-22.9l37.1,12.4l-27.8,84.7
	l-37.1-12.4l7.4-22.9l-34-11.1l0,0c-11.1-2.5-25.3,11.1-32.1,31.5c-6.8,20.4-3.7,40.2,7.4,44.5l0,0l34,11.1l7.4-22.9l37.1,12.4
	l-3.7,10.5c-3.7,12.4-8,33.4-4.3,45.8c6.8,20.4,61.2,21.6,61.2,21.6l273.9,1.2c0.6-19.2,1.9-29.1,10.5-37.7
	c9.3-9.3,37.1-22.9,61.8-36.5c4.9-2.5,18.5-13.6,21-19.2c3.7-7.4,1.9-27.8,0-40.8c-5.6-39.6-11.7-83.5-15.5-115.6
	c-6.2-56.9-9.3-106.3-9.9-163.2c-1.2-96.4,9.3-176.2,27.8-252.9c6.8-27.2,16.7-52.6,17.3-77.9c0.6-21.6-2.5-30.3-13.6-42.7
	C506.2-1.9,487.7,0,480.3,1.2z"/>
<text transform="matrix(4.489660e-11 -0.9418 1 4.228227e-11 268.5805 794)" fill="#FE3D02" font-family="'AlfaSlabOne-Regular', 'alfa_slab_oneregular'" font-size="121.159">Stomp</text>
<text transform="matrix(4.489660e-11 -0.9418 1 4.228227e-11 400.1709 794)" fill="#FE3D02" font-family="'AlfaSlabOne-Regular', 'alfa_slab_oneregular'" font-size="121.159">Delirium!</text>
</svg>
