<?xml version="1.0" encoding="utf-8"?>
<!-- Generator: Adobe Illustrator 18.0.0, SVG Export Plug-In . SVG Version: 6.00 Build 0)  -->
<!DOCTYPE svg PUBLIC "-//W3C//DTD SVG 1.1//EN" "http://www.w3.org/Graphics/SVG/1.1/DTD/svg11.dtd">
<svg version="1.1" id="Layer_1" xmlns="http://www.w3.org/2000/svg" xmlns:xlink="http://www.w3.org/1999/xlink" x="0px" y="0px"
	 viewBox="122 486.5 140.6 201.4" enable-background="new 122 486.5 140.6 201.4" xml:space="preserve">
<path fill="#E3CD67" d="M261.3,634.9c-3.2-12.9-9-23.8-14.7-33.9c-2.8-5.1-5.9-10.7-6.7-17.4c-1-7.9,0.7-14.8,3.4-20.3
	c2.5-5.4,5.4-11.2,6.3-18c1.1-7.3-0.2-14.7-3.9-19.8c-1.4-2-2.7-2.8-5-3.1c-1.2-0.2-2.7,0.3-3.7,1.2c-1,0.8-2.3,2.9-2.8,4.1
	c-0.6,1.7-0.8,3.2-1.2,5.2c-0.3,1.9-1,3.9-1.6,5.4c-1.2,3.3-2.8,6.7-5.2,8.8c-2.4,2.1-7.5,2.9-12,2.1c-2.8-0.5-20.7-9.4-24.2-11.1
	c-4.9-2.4-23.3-11.9-26.5-13.9c-3.5-2.2-5.9-5.9-7.8-9.2c-3.1-5.5-5-11.9-5.9-19.7c-0.4-3.4-0.4-8.3-3.6-8.8c-2-0.3-3.6,0.8-4.8,1.8
	c-1.2,1-2.2,2.3-3.1,3.6c-1.9,2.9-3.7,5.4-4.8,8.6c-2.2,6.5-2.5,16.2-0.5,23.1c2,6.8,5,12.7,8,18.7c2.9,5.8,5.9,12.4,6.9,19.9
	c1.1,8.6-0.8,15.9-3.6,22.2c-2.7,6.2-6,12-9,17.7c-5.2,10.1-11.3,20-13,33.7c-0.2,2-0.5,4.3-0.4,6.3c0.4,7.1,3.5,13.1,6.7,17.8
	c3.4,4.8,7.8,9,12,12.3c4.7,3.7,9.4,6.6,15.3,9c8.6,3.5,18.8,5.4,30.2,6.3c2.7,0.2,5.4,0.5,8,0.4c4.4-0.2,8.7,0.1,13.2-0.2
	c3.7-0.3,7.4-0.6,10.9-1.1c6.6-0.9,13-3,18.7-5.6c5.8-2.6,10.8-5.8,14.7-9.6c2-2,3.6-4.4,5.3-6.9c3.3-5,5.2-11.2,5.4-18.8
	C262.8,641.9,262.1,638.3,261.3,634.9z"/>
</svg>
