<?xml version="1.0" encoding="utf-8"?>
<!-- Generator: Adobe Illustrator 18.0.0, SVG Export Plug-In . SVG Version: 6.00 Build 0)  -->
<!DOCTYPE svg PUBLIC "-//W3C//DTD SVG 1.1//EN" "http://www.w3.org/Graphics/SVG/1.1/DTD/svg11.dtd">
<svg version="1.1" id="Layer_1" xmlns="http://www.w3.org/2000/svg" xmlns:xlink="http://www.w3.org/1999/xlink" x="0px" y="0px"
	 viewBox="0 0 293 777" enable-background="new 0 0 293 777" xml:space="preserve">
<path fill-rule="evenodd" clip-rule="evenodd" fill="#FFFFFF" d="M269.8,663.2c-5.6-22.4-15.7-41.3-25.5-58.8
	c-4.9-8.8-10.2-18.5-11.7-30.3c-1.8-13.7,1.3-25.7,5.9-35.2c4.4-9.3,9.3-19.5,11-31.2c1.9-12.6-0.3-25.6-6.7-34.4
	c-1.8-2.5-4.1-4.4-8.7-4.7c-2.1-0.2-5.2,0.4-7,1.7c-1.8,1.4-3.1,3.4-3.9,5.5c-1.2,2.8-1.8,6.9-2.4,10.5c-0.6,3.3-1.7,6.8-2.7,9.4
	c-2.1,5.7-4.9,11.6-9,15.2c-4.2,3.7-11.8,7-21.8,5.8c-4.8-0.6-12.2-1.7-16.9-11.9c-2.1-4.7-1.5-8.9-1.6-12.2
	c-0.5-11.7-0.8-24-1-36.1V163.1c0.1-0.2,2.5-0.2,7.3-2.8c4.8-2.5,4.3-2,8.2-4.3c1-0.6,3.3-2.3,3.7-3.2c0.6-1.2,0.3-4.5,0-6.6
	c-0.9-6.4-1.9-13.5-2.5-18.7c-1-9.2-1.5-17.2-1.6-26.4c-0.2-15.6,1.5-28.5,4.5-40.9c1.1-4.4,2.7-8.5,2.8-12.6
	c0.1-3.5,0.1-4.6-1.7-6.6c-1.4-1.6-5.5-3.2-9.1-2.5c-5.8,1.1-17.5,3.8-24,9.7c-1.3,1.1-2.8,5.4-3.9,8.5l-6.7-1.9l1.2-3.7l-5.5-1.8
	l0,0c-1.8-0.4-4.1,1.8-5.2,5.1c-1.1,3.3-0.6,6.5,1.2,7.2l0,0l5.5,1.8l1.2-3.7l6,2c-0.1,0.3-0.1,0.4-0.1,0.4l-4.4,13.3l-6-2l1.2-3.7
	l-5.5-1.8l0,0c-1.8-0.4-4.1,1.8-5.2,5.1c-1.1,3.3-0.6,6.5,1.2,7.2l0,0l5.5,1.8l1.2-3.7l6,2L138.4,94l-6-2l1.2-3.7l-5.5-1.8l0,0
	c-1.8-0.4-4.1,1.8-5.2,5.1c-1.1,3.3-0.6,6.5,1.2,7.2l0,0l5.5,1.8l1.2-3.7l6,2l-4.5,13.7l-6-2l1.2-3.7l-5.5-1.8l0,0
	c-1.8-0.4-4.1,1.8-5.2,5.1c-1.1,3.3-0.6,6.5,1.2,7.2l0,0l5.5,1.8l1.2-3.7l6,2l-4.5,13.7l-6-2l1.2-3.7l-5.5-1.8l0,0
	c-1.8-0.4-4.1,1.8-5.2,5.1c-1.1,3.3-0.6,6.5,1.2,7.2l0,0l5.5,1.8l1.2-3.7l6,2l-4.5,13.7l-6-2l1.2-3.7l-5.5-1.8l0,0
	c-1.8-0.4-4.1,1.8-5.2,5.1c-1.1,3.3-0.6,6.5,1.2,7.2l0,0l5.5,1.8l1.2-3.7l6,2l-0.6,1.7c-0.6,2-1.3,5.4-0.7,7.4
	c1.1,3.3,6.4,3.5,6.4,3.5l9.6,1.8v288.6c-0.4,9-8,14-10.5,15.2c-7.7,3.7-19.2,0.2-24.6-4c-5.7-4.4-8.1-8.6-11.5-14.4
	c-5.4-9.5-8.6-20.6-10.2-34.2c-0.7-5.9-0.7-14.4-6.2-15.3c-3.5-0.6-6.3,1.4-8.3,3.1c-2,1.8-5.8,6.6-7.3,8.9c-3.3,5-4.5,6.8-6.3,12.3
	c-3.8,11.3-4.3,28.2-0.9,40.1c3.4,11.8,8.7,22.1,13.9,32.4c5.1,10.1,10.2,21.6,11.9,34.5c1.9,14.9-1.4,27.7-6.2,38.6
	c-4.7,10.8-10.5,20.8-15.6,30.8c-9,17.5-19.6,34.8-22.5,58.5c-0.4,3.5-0.9,7.4-0.7,10.9c0.7,12.3,6,22.8,11.7,30.9
	c5.9,8.3,13.6,15.6,20.9,21.3c8.2,6.4,16.4,11.5,26.5,15.6c15,6.1,32.7,9.4,52.4,10.9c4.7,0.4,9.3,0.9,13.9,0.7
	c7.7-0.3,15.1,0.2,23-0.4c6.4-0.5,12.8-1,19-1.9c11.5-1.6,22.6-5.2,32.5-9.7c10-4.6,18.7-10.1,25.5-16.7c3.5-3.4,6.3-7.6,9.2-11.9
	c5.8-8.6,9-19.4,9.4-32.6C272.5,675.3,271.3,669,269.8,663.2z"/>
</svg>
