<?xml version="1.0" encoding="utf-8"?>
<!-- Generator: Adobe Illustrator 18.0.0, SVG Export Plug-In . SVG Version: 6.00 Build 0)  -->
<!DOCTYPE svg PUBLIC "-//W3C//DTD SVG 1.1//EN" "http://www.w3.org/Graphics/SVG/1.1/DTD/svg11.dtd">
<svg version="1.1" id="Layer_1" xmlns="http://www.w3.org/2000/svg" xmlns:xlink="http://www.w3.org/1999/xlink" x="0px" y="0px"
	 viewBox="251.2 35.1 85.7 128.1" enable-background="new 251.2 35.1 85.7 128.1" xml:space="preserve">
<path fill="#E3CD67" d="M328.9,35.3c-5.8,1.1-17.5,2.8-21.7,4.8c-1.1,0.6-2.3,1.3-3.5,2.1c-0.7,0.7-1.5,1.5-2.1,2.3
	c-1.1,1.3-2.5,4.8-3.7,8l-6.1-2l1.2-3.7l-5.5-1.8l0,0c-1.8-0.4-4.1,1.8-5.2,5.1s-0.6,6.5,1.2,7.2l0,0l5.5,1.8l1.2-3.7l6,2
	c-0.1,0.3-0.1,0.4-0.1,0.4l-4.4,13.3l-6-2l1.2-3.7l-5.5-1.8l0,0c-1.8-0.4-4.1,1.8-5.2,5.1s-0.6,6.5,1.2,7.2l0,0l5.5,1.8l1.2-3.7l6,2
	l-4.5,13.7l-6-2l1.2-3.7l-5.5-1.8l0,0c-1.8-0.4-4.1,1.8-5.2,5.1c-1.1,3.3-0.6,6.5,1.2,7.2l0,0l5.5,1.8l1.2-3.7l6,2l-4.5,13.7l-6-2
	l1.2-3.7l-5.5-1.8l0,0c-1.8-0.4-4.1,1.8-5.2,5.1c-1.1,3.3-0.6,6.5,1.2,7.2l0,0l5.5,1.8l1.2-3.7l6,2l-4.5,13.7l-6-2l1.2-3.7l-5.5-1.8
	l0,0c-1.8-0.4-4.1,1.8-5.2,5.1c-1.1,3.3-0.6,6.5,1.2,7.2l0,0l5.5,1.8l1.2-3.7l6,2l-4.5,13.7l-6-2l1.2-3.7L257,138l0,0
	c-1.8-0.4-4.1,1.8-5.2,5.1c-1.1,3.3-0.6,6.5,1.2,7.2l0,0l5.5,1.8l1.2-3.7l6,2l-0.6,1.7c-0.6,2-1.3,5.4-0.7,7.4
	c1.1,3.3,9.9,3.5,9.9,3.5l44.3,0.2c0.1-3.1,0.3-4.7,1.7-6.1c1.5-1.5,6-3.7,10-5.9c0.8-0.4,3-2.2,3.4-3.1c0.6-1.2,0.3-4.5,0-6.6
	c-0.9-6.4-1.9-13.5-2.5-18.7c-1-9.2-1.5-17.2-1.6-26.4c-0.2-15.6,1.5-28.5,4.5-40.9c1.1-4.4,2.7-8.5,2.8-12.6
	c0.1-3.5-0.4-4.9-2.2-6.9C333.1,34.8,330.1,35.1,328.9,35.3z"/>
</svg>
